<svg width="17" height="17" fill="none" xmlns="http://www.w3.org/2000/svg"><path d="M8.5 17a8.5 8.5 0 100-17 8.5 8.5 0 000 17z" fill="#E8833F"/><path d="M6.328 12.334l4.37 4.371C14.319 15.74 17 12.442 17 8.5v-.241l-3.432-3.164-7.24 7.24z" fill="#D16115"/><path d="M8.714 10.404a1.004 1.004 0 010 1.394l-.777.778a1.004 1.004 0 01-1.395 0L3.137 9.144a1.004 1.004 0 010-1.395l.778-.777a1.004 1.004 0 011.394 0l3.405 3.432z" fill="#fff"/><path d="M11.69 4.478a1.004 1.004 0 011.395 0l.777.778a1.004 1.004 0 010 1.394l-5.899 5.872a1.004 1.004 0 01-1.394 0l-.778-.777a1.004 1.004 0 010-1.395l5.9-5.872z" fill="#fff"/></svg>