<svg width="25" height="24" fill="none" xmlns="http://www.w3.org/2000/svg"><path d="M12.655.25C6.212.25.969 5.495.969 11.939c0 6.445 5.243 11.687 11.688 11.687 6.444 0 11.687-5.242 11.687-11.687C24.343 5.494 19.1.251 12.655.251zm0 20.915c-5.087 0-9.226-4.14-9.226-9.227 0-5.088 4.139-9.227 9.226-9.227 5.088 0 9.227 4.14 9.227 9.227 0 5.088-4.139 9.227-9.227 9.227z" fill="#2B84E0"/><path d="M18.93 11.577h-4.564a2.02 2.02 0 00-.665-.664V5.426a1.046 1.046 0 10-2.091 0v5.487a2.006 2.006 0 001.046 3.715c.722 0 1.357-.385 1.71-.96h4.564a1.046 1.046 0 100-2.09z" fill="#2B84E0"/></svg>