<svg width="78" height="183" fill="none" xmlns="http://www.w3.org/2000/svg"><g clip-path="url(#clip0)"><path fill-rule="evenodd" clip-rule="evenodd" d="M38.813 91.192c6.201.52 15.755 2.38 18.654 8.803 3.824 8.488.496 18.119.473 23.518-.023 5.409 9.919 12.024 9.848 28.817-.07 16.793-14.045 23.894-33.634 23.812C14.566 176.06.056 168.839.127 152.046c.07-16.794 10.067-23.324 10.09-28.734.022-5.41-3.225-15.057.67-23.513 2.953-6.41 12.522-8.177 18.727-8.646l9.2.039z" fill="#B24F0B"/><path fill-rule="evenodd" clip-rule="evenodd" d="M37.623 11.155c3.58.015 4.727 1.516 6.184 1.557.933.027 1.641.835 1.509 1.744-.168 1.093-.045 2.348-.202 3.717h.163c.084-.47.26-.873.54-1.021l1.4.006c1.28.43 1.282 2.952-.014 3.372l-1.4-.006c-.302-.162-.487-.635-.554-1.176l-.257-.001a95.783 95.783 0 00-.356 4.43l.63.002c.083-.471.26-.873.54-1.022l1.399.006c1.28.431 1.282 2.952-.014 3.373l-1.4-.006c-.302-.163-.486-.635-.554-1.177l-.653-.002a79.817 79.817 0 00-.089 4.43l.758.004c.084-.472.26-.874.54-1.022l1.4.006c1.28.43 1.282 2.952-.014 3.372l-1.4-.006c-.302-.162-.486-.635-.554-1.176l-.711-.003-.427 7.215a1.34 1.34 0 01-.915 1.228l-1.624.88-.002.345.218 50.83c6.038.52 15.335 2.378 18.153 8.802 3.719 8.487.472 18.119.45 23.517-.023 5.41 9.65 12.023 9.58 28.816-.071 16.794-13.673 23.896-32.737 23.816-19.064-.08-33.177-7.299-33.106-24.092.07-16.794 9.799-23.325 9.821-28.735.023-5.41-3.143-15.057.647-23.513 2.872-6.41 12.184-8.179 18.226-8.648l.02-1.784v-.346l.036-2.796.001-.346.036-3.027.002-.345.526-42.126-.011-.012-.15-.392-1.617-.893a1.316 1.316 0 01-.904-1.235l-.367-7.219-.71-.003c-.073.541-.262 1.012-.565 1.172l-1.4-.006c-1.292-.431-1.27-2.952.014-3.372l1.4.006c.267.15.452.554.532 1.026l.758.004c.03-1.474 0-2.97-.052-4.432l-.664-.003c-.073.54-.261 1.012-.565 1.172l-1.4-.006c-1.291-.431-1.27-2.952.015-3.373l1.4.006c.267.15.452.555.531 1.027l.63.003a97.188 97.188 0 00-.32-4.433l-.268-.002c-.072.541-.26 1.012-.564 1.172l-1.4-.006c-1.292-.431-1.27-2.952.015-3.372l1.399.006c.267.15.452.554.532 1.026l.163.001c-.146-1.359-.012-2.613-.17-3.719-.125-.92.59-1.712 1.522-1.731 1.446-.029 2.56-1.52 6.14-1.505h.28z" fill="#CE7A41"/><path fill-rule="evenodd" clip-rule="evenodd" d="M32.347 112.067l.458-22.834.001-.346.035-2.796.002-.346.036-3.027.001-.345.527-42.126-.012-.011-.15-.392-1.617-.894a1.316 1.316 0 01-.904-1.235l-.366-7.219-.712-.002c-.072.54-.26 1.011-.564 1.171l-1.4-.006c-1.292-.431-1.27-2.952.015-3.372l1.4.006c.267.15.451.554.531 1.026l.758.004c.03-1.474 0-2.97-.051-4.432l-.653-.003c-.072.54-.261 1.012-.565 1.172l-1.399-.006c-1.293-.431-1.27-2.952.014-3.372l1.4.005c.267.151.452.555.531 1.027l.63.003a97.027 97.027 0 00-.32-4.433l-.268-.001c-.072.54-.26 1.011-.564 1.171l-1.4-.006c-1.292-.43-1.27-2.951.015-3.372l1.399.006c.267.15.452.554.532 1.026l.163.001c-.146-1.359-.012-2.613-.17-3.718-.125-.922.59-1.713 1.522-1.732 1.446-.029 2.56-1.52 6.14-1.505l.28.001c3.58.015 4.727 1.516 6.184 1.557.933.027 1.641.835 1.509 1.744-.168 1.093-.045 2.348-.202 3.717l.163.001c.084-.472.26-.874.54-1.022l1.4.006c1.28.431 1.282 2.952-.014 3.372l-1.4-.006c-.302-.162-.487-.635-.554-1.176l-.257-.001a95.9 95.9 0 00-.356 4.43l.63.002c.083-.471.26-.873.54-1.022l1.399.006c1.28.431 1.282 2.952-.014 3.373l-1.4-.006c-.302-.163-.486-.635-.554-1.177l-.653-.002a79.911 79.911 0 00-.089 4.43l.758.004c.084-.472.26-.874.54-1.022l1.4.006c1.28.431 1.282 2.952-.014 3.372l-1.4-.006c-.302-.162-.486-.635-.554-1.176l-.711-.003-.427 7.215A1.34 1.34 0 0143.171 39l-1.624.88-.002.345.643 71.873-9.84-.041v.011z" fill="#5E2C0B"/><path fill-rule="evenodd" clip-rule="evenodd" d="M41.118 33.926c.547.013 1.004-.388 1.018-.905l.42-14.156c.015-.507-.415-.934-.963-.948-.548-.014-1.005.387-1.018.905l-.421 14.156c-.014.506.416.934.964.948zm-7.358-.031c-.548.01-1.001-.396-1.01-.914l-.303-14.159c-.01-.506.424-.93.972-.94.548-.009 1.001.396 1.01.914l.303 14.16c.01.506-.424.93-.972.939z" fill="#fff"/><path fill-rule="evenodd" clip-rule="evenodd" d="M51.72 155.347l-29.034-.122c-1.34-.005-2.409-1.08-2.403-2.392.005-1.324 1.094-2.378 2.423-2.373l29.033.122c1.341.006 2.41 1.081 2.404 2.393.006 1.312-1.083 2.378-2.424 2.372z" fill="#5E2C0B"/><path d="M46.645 150.652l-18.75-.078-.02 4.73 18.75.079.02-4.731z" fill="#823D0F"/><path d="M46.645 150.652l-18.75-.078-.003.863 18.749.079.004-.864zm-9.522-20.7c6.26.026 11.355-4.962 11.38-11.141.026-6.178-5.027-11.209-11.286-11.235-6.26-.026-11.354 4.961-11.38 11.14-.026 6.179 5.027 11.209 11.286 11.236z" fill="#E8AA80"/><path d="M37.124 129.675c6.105.026 11.074-4.839 11.1-10.865.025-6.026-4.904-10.933-11.008-10.958-6.105-.026-11.074 4.839-11.1 10.865-.025 6.026 4.903 10.933 11.008 10.958z" fill="#5E2C0B"/><path d="M37.134 127.189c4.714.02 8.55-3.736 8.57-8.389.02-4.654-3.785-8.442-8.5-8.462-4.713-.019-8.55 3.737-8.57 8.39-.019 4.653 3.786 8.441 8.5 8.461z" fill="#823D0F"/><path d="M38.905 155.294c.004-1.048.279-105.262.635-112.5.346-7.239 2.328-18.396 2.34-18.51l.128.023c-.024.115-1.994 11.26-2.34 18.487-.345 7.227-.63 111.441-.635 112.489l-.128-.001v.012z" fill="#AFAFAF"/><path d="M39.149 155.41l-.373-.002v-.115c.007-4.293.291-105.342.636-112.5.345-7.227 2.328-18.407 2.34-18.522l.024-.115.36.06-.023.114c-.024.115-1.995 11.272-2.34 18.476-.345 7.181-.63 111.43-.635 112.489l.011.115z" fill="#AFAFAF"/><path d="M40.63 155.301c.005-1.059.129-105.48.474-112.708.345-7.239 1.173-12.645 1.184-12.702l.129.023c-.012.058-.84 5.453-1.185 12.691-.345 7.227-.468 111.649-.473 112.708l-.128-.012z" fill="#AFAFAF"/><path d="M40.514 155.415v-.115c.005-1.047.117-105.457.474-112.719.345-7.181 1.184-12.656 1.184-12.714l.012-.115.361.06-.012.114c-.012.058-.839 5.476-1.184 12.68-.357 7.25-.469 111.648-.473 112.696v.115l-.362-.002z" fill="#AFAFAF"/><path d="M37.344 155.287c.004-1.047.279-105.261.635-112.5.346-7.239 3.619-23.075 3.654-23.236l.128.024c-.035.161-3.308 15.985-3.653 23.213-.345 7.227-.631 111.441-.636 112.488l-.128-.001v.012z" fill="#AFAFAF"/><path d="M37.6 155.403l-.373-.001v-.116c.007-4.293.29-105.341.636-112.5.357-7.273 3.63-23.097 3.654-23.258l.024-.115.36.07-.023.115c-.036.161-3.297 15.998-3.654 23.202-.345 7.146-.617 108.183-.635 112.488l.01.115zm-2.868-.127l-.14-.001c.004-1.047.605-105.26.309-112.49-.284-7.23-2.161-18.402-2.184-18.506l.128-.022c.023.115 1.9 11.288 2.184 18.529.296 7.23-.293 111.442-.297 112.49z" fill="#AFAFAF"/><path d="M34.848 155.391l-.374-.001v-.115c.03-4.293.595-105.33.31-112.49-.284-7.218-2.161-18.38-2.184-18.495l-.023-.115.362-.056.022.115c.023.115 1.9 11.311 2.185 18.541.284 7.16-.292 108.208-.31 112.501l.012.115zm-1.585-.121h-.14c0-.184.321-18.312-.014-38.341-.438-26.257-1.75-50.009-2.059-54.039-.42-5.469-4.614-6.235-6.398-6.3-1.912-.077-3.605.595-4.637 1.834-.879 1.067-1.21 2.309-.983 3.714.205 1.22.714 2.12 1.528 2.665 1.337.904 3.053.554 3.064.554l.023.127c-.023 0-1.786.36-3.17-.578-.848-.567-1.38-1.502-1.585-2.757-.239-1.44.105-2.728 1.019-3.818 1.066-1.273 2.795-1.968 4.753-1.89 1.819.076 6.095.854 6.526 6.427.31 4.03 1.62 27.781 2.059 54.038.335 20.053.014 38.18.014 38.364z" fill="#AFAFAF"/><path d="M33.378 155.386l-.373-.002v-.115c.002-.184.322-18.22-.013-38.341-.438-26.246-1.75-49.997-2.059-54.027-.42-5.377-4.533-6.131-6.293-6.196-1.877-.077-3.524.572-4.544 1.8-.867 1.032-1.187 2.25-.96 3.621.194 1.186.692 2.063 1.482 2.596 1.29.869 2.96.542 2.971.542l.117-.022.08.357-.117.022c-.023 0-1.832.372-3.262-.589-.872-.59-1.427-1.548-1.644-2.838-.238-1.475.105-2.786 1.043-3.91 1.09-1.307 2.853-2.014 4.847-1.925 1.853.077 6.2.867 6.642 6.532.31 4.03 1.62 27.793 2.058 54.05.335 20.144.015 38.168.014 38.352l.011.093zm2.73-.103l-.14-.001c.004-1.047.605-105.26.309-112.49-.285-7.23-3.424-23.092-3.459-23.242l.082-.011.058-.012c.035.162 3.175 16.025 3.459 23.266.296 7.23-.305 111.442-.31 112.49z" fill="#AFAFAF"/><path d="M36.224 155.397l-.374-.001v-.115c.005-1.048.595-105.306.31-112.49-.285-7.195-3.424-23.07-3.459-23.231l-.023-.115.362-.068.023.116c.034.16 3.174 16.024 3.459 23.288.284 7.16-.292 108.208-.31 112.501l.011.115z" fill="#AFAFAF"/><path fill-rule="evenodd" clip-rule="evenodd" d="M32.69 25.039L31 25.032l.005-1.335 1.69.007c.257 0 .478.209.477.474l-.002.39a.485.485 0 01-.48.47zm.022-5.329l-1.69-.008.005-1.335 1.691.007c.256.001.477.21.476.474l-.002.392a.485.485 0 01-.48.47zm.222 10.935l-1.69-.007.005-1.335 1.69.007c.257.001.478.21.477.474l-.002.392a.477.477 0 01-.48.47zm9.322-1.295l1.691.006-.006 1.336-1.69-.007a.477.477 0 01-.476-.474l.001-.392a.485.485 0 01.48-.47zm.024-5.595l1.69.008-.005 1.335-1.69-.007a.477.477 0 01-.477-.474l.002-.392a.485.485 0 01.48-.47zm-.247-5.077l1.69.008-.005 1.335-1.69-.007a.477.477 0 01-.477-.474l.002-.392a.493.493 0 01.48-.47z" fill="#5E2C0B"/></g><defs><clipPath id="clip0"><path transform="rotate(.24 .765 0)" fill="#fff" d="M.765 0h77v182h-77z"/></clipPath></defs></svg>