<svg width="9" height="9" fill="none" xmlns="http://www.w3.org/2000/svg"><g clip-path="url(#clip0)"><path d="M.602 1.77C.208 2.4 0 3.264 0 4.268 0 5.27.208 6.135.602 6.766c.449.718 1.116 1.097 1.929 1.097.795 0 2.23-.486 3.572-1.209.678-.365 1.254-.753 1.666-1.122.509-.455.767-.88.767-1.264s-.258-.81-.767-1.265c-.412-.368-.988-.756-1.666-1.122C4.761 1.158 3.326.672 2.531.672c-.813 0-1.48.38-1.929 1.098z" fill="#2B84E0"/></g><defs><clipPath id="clip0"><path transform="rotate(-90 0 8.536)" fill="#fff" d="M0 8.536h8.536v8.536H0z"/></clipPath></defs></svg>