<svg width="162" height="50" fill="none" xmlns="http://www.w3.org/2000/svg"><path d="M156.919 13.096a11.11 11.11 0 014.082 5.976.957.957 0 01-.153.834.945.945 0 01-.757.382h-5.626a.975.975 0 01-.838-.5 5.708 5.708 0 00-1.971-1.98 6.87 6.87 0 00-3.634-.918c-2.203 0-3.972.742-5.307 2.226-1.334 1.484-2 3.492-1.998 6.024 0 2.754.7 4.866 2.101 6.336 1.401 1.47 3.394 2.204 5.981 2.202a7.067 7.067 0 007.022-5.253h-8.011a.809.809 0 01-.811-.812v-3.411a.812.812 0 01.811-.808h12.75a1.097 1.097 0 011.098 1.1v2.965a11.734 11.734 0 01-2.58 7.49l-.034.044a13.403 13.403 0 01-4.592 3.514c-2 .93-4.184 1.39-6.389 1.35-2.91 0-5.455-.62-7.633-1.857a12.756 12.756 0 01-5.044-5.212 16.12 16.12 0 01-1.773-7.64 16.119 16.119 0 011.773-7.641 12.827 12.827 0 015.023-5.21 14.997 14.997 0 017.572-1.859c3.621 0 6.6.886 8.938 2.658zM75.307 11.743v3.52a1.028 1.028 0 01-1.027 1.028h-6.81V38.6a1.028 1.028 0 01-1.026 1.028h-4.978a1.026 1.026 0 01-1.027-1.028V16.284h-6.727a1.026 1.026 0 01-1.027-1.027v-3.514a1.028 1.028 0 011.027-1.027h20.575a1.026 1.026 0 011.02 1.027zM98.715 13.357a13.014 13.014 0 014.414 6.794.82.82 0 01-.774 1.048h-5.84a.818.818 0 01-.716-.486 6.679 6.679 0 00-2.296-2.672 7.024 7.024 0 00-4.023-1.143 6.121 6.121 0 00-4.942 2.246c-1.252 1.498-1.877 3.5-1.875 6.004.003 2.504.628 4.5 1.876 5.986a6.158 6.158 0 004.94 2.226 7.024 7.024 0 004.024-1.144 6.765 6.765 0 002.293-2.637.815.815 0 01.715-.469h5.841a.81.81 0 01.773 1.048 13.101 13.101 0 01-4.41 6.774c-2.41 1.95-5.45 2.923-9.123 2.921a14.4 14.4 0 01-7.387-1.839 12.595 12.595 0 01-4.92-5.212 16.376 16.376 0 01-1.735-7.64 16.385 16.385 0 011.734-7.641 12.63 12.63 0 014.92-5.209 14.4 14.4 0 017.388-1.86c3.682-.009 6.723.96 9.123 2.905zM129.613 17.59a12.56 12.56 0 00-5.201-5.066c-2.263-1.199-4.944-1.798-8.045-1.798h-9.498a1.4 1.4 0 00-1.4 1.4v26.086a1.403 1.403 0 001.4 1.398h9.498c3.078 0 5.751-.612 8.021-1.836a12.78 12.78 0 005.225-5.137 15.324 15.324 0 001.817-7.534 15.222 15.222 0 00-1.817-7.514zm-5.136 9.122c-1.403 1.819-3.22 3.189-5.133 4.432-1.18.77-2.361 1.568-3.712 2.038a9.688 9.688 0 01-1.752.445 1.394 1.394 0 01-1.602-.908 9.258 9.258 0 01-.79-3.123 28.233 28.233 0 01.452-8.65c.162-.799.501-1.55.992-2.2a3.627 3.627 0 012.505-1.455c.261-.037.526-.052.79-.044a9.535 9.535 0 013.685.98c.343.146.644.341.962.51a11.696 11.696 0 013.476 2.568c.294.326.533.697.709 1.1a4.233 4.233 0 01-.582 4.307z" fill="#E8833F"/><path d="M37.2 3.843a12.263 12.263 0 00-3.401-1.9C29.669.431 25.409 0 21.063.058c-1.081 0-2.17-.065-3.247 0-3.822.284-7.586.849-11.06 2.599-.704.354-1.38.763-2.021 1.223v.017a10.88 10.88 0 00-4.517 7.325 16.428 16.428 0 00.458 7.178c2.396 8.38 6.16 16.134 10.95 23.38 1.766 2.682 3.846 5.161 6.447 7.11 1.85 1.387 3.623 1.503 5.474.137a28.353 28.353 0 003.98-3.634c2.901-3.116 4.886-6.873 6.915-10.561 3.271-5.942 6.128-12.09 7.285-18.836.821-4.794-.979-9.38-4.493-12.157" fill="#fff"/><path d="M25.473 24.339a5.043 5.043 0 00-1.469-3.562 5.035 5.035 0 00-3.554-1.483v3.518l2.08 1.082a.493.493 0 010 .877l-2.08 1.088v3.524a5.047 5.047 0 005.023-5.045z" fill="#E8833F"/><path d="M19.31 26.455a.49.49 0 01-.486 0 .48.48 0 01-.219-.29.435.435 0 01-.02-.134v-3.373a.498.498 0 01.725-.439l1.14.593v-3.518a5.038 5.038 0 00-5.04 5.045 5.038 5.038 0 005.04 5.045V25.86l-1.14.595z" fill="#D16115"/><path d="M37.243 3.798h-.03a12.195 12.195 0 00-3.422-1.9C30.064.527 26.21.033 22.287 0l.092 10.709c.147 1.062.171 2.36 1.557 3.27 1.957 1.281 5.204-1.287 6.796.035 1.645 1.37-.206 4.154-.206 7.335 0 2.791 3.637 7.596 4.534 12.33 3.014-5.576 5.594-11.381 6.676-17.71.824-4.794-.979-9.39-4.493-12.171zM21.264 44.431h-.824c-.363 0-.716 0-1.061-.027-.346-.027-.589-.027-.873-.048-.455-.03-.893-.068-1.314-.116.086.147 1.198 2.054 2.54 3.082 2.288 1.764 3.8 1.712 3.8 1.712-.688.546-1.52.88-2.394.963a4.56 4.56 0 002.419-.96 28.41 28.41 0 003.983-3.636 27.411 27.411 0 001.796-2.151c-2.114.74-4.79 1.154-8.072 1.181z" fill="#1B71BF"/><path d="M19.868 47.34c-1.345-1.028-2.59-2.952-2.676-3.083a18.394 18.394 0 01-4.643-1.106 26.457 26.457 0 005.499 5.733c.692.559 1.517.93 2.395 1.076h.677a4.542 4.542 0 002.395-.963s-1.358.103-3.647-1.657z" fill="#2B84E0"/><path d="M4.213 10.836c-2.19 6.267 3.932 18.376 3.932 18.376a20.381 20.381 0 00-1.369 4.411l-.465-.917c.157.311.318.62.479.931.684-4.335 4.123-9.322 4.123-11.877 0-3.082-1.71-7.322 0-9.794 1.157-1.692 4.719-2.154 7.213-2.27l.051-6.11c-.393-.007-11.394-.1-13.964 7.25z" fill="#1B71BF"/><path d="M17.81.02c-3.826.264-7.593.84-11.07 2.593-.705.354-1.382.764-2.022 1.226a10.876 10.876 0 00-4.523 7.35c-.374 2.4-.209 4.852.482 7.18a79.723 79.723 0 005.636 14.337l.472.917a20.38 20.38 0 011.369-4.41s-6.129-12.11-3.939-18.377c2.57-7.35 13.57-7.257 13.964-7.25L18.21 0l-.4.02z" fill="url(#paint0_linear)"/><path d="M22.53 24.77l-2.08 1.09-1.14.596a.49.49 0 01-.485 0 .48.48 0 01-.22-.291.432.432 0 01-.02-.134v-3.373a.496.496 0 01.725-.439l1.14.593 2.08 1.082a.493.493 0 010 .877z" fill="#fff"/><path d="M37.243 3.798h-.03a12.195 12.195 0 00-3.422-1.9C30.064.527 26.21.033 22.287 0l.03 3.346a27.63 27.63 0 019.304 1.551 10.02 10.02 0 012.782 1.552h.027a10.342 10.342 0 013.672 9.931c-.777 4.527-2.488 8.72-4.554 12.764a21.537 21.537 0 011.512 4.544c3.014-5.585 5.594-11.39 6.676-17.719.824-4.794-.979-9.39-4.493-12.171z" fill="url(#paint1_linear)"/><defs><linearGradient id="paint0_linear" x1="24.852" y1=".106" x2="6.386" y2="18.005" gradientUnits="userSpaceOnUse"><stop offset=".39" stop-color="#1B71BF"/><stop offset=".99" stop-color="#2B84E0"/></linearGradient><linearGradient id="paint1_linear" x1="1866.54" y1="3459.12" x2="1866.54" y2="183.602" gradientUnits="userSpaceOnUse"><stop offset=".39" stop-color="#1B71BF"/><stop offset=".99" stop-color="#2B84E0"/></linearGradient></defs></svg>