<svg width="31" height="31" fill="none" xmlns="http://www.w3.org/2000/svg"><g clip-path="url(#clip0)"><path d="M11.305 6.064l15.391 8.712-10.164 8.13-8.13 1.453-2.324-9.584 3.195-8.13 2.032-.581z" fill="#fff"/><path d="M31 15.502A15.502 15.502 0 0015.554 0v10.812l6.388 3.319a1.525 1.525 0 010 2.703l-6.388 3.343V31A15.501 15.501 0 0031 15.502z" fill="#E8833F"/><path d="M12.046 22.01c-.218.114-.46.173-.706.173a1.522 1.522 0 01-1.51-1.524V10.34a1.527 1.527 0 012.213-1.339l3.51 1.824V0h-.052a15.502 15.502 0 100 31h.053V20.177l-3.508 1.832z" fill="#D16115"/></g><defs><clipPath id="clip0"><path fill="#fff" d="M0 0h31v31H0z"/></clipPath></defs></svg>